<svg id="Capa_1" enable-background="new 0 0 512 512" height="512" viewBox="0 0 512 512" width="512" xmlns="http://www.w3.org/2000/svg"><g><path d="m512 256c0 80.25-36.93 151.87-94.72 198.81-3.26 2.65-6.6-19.229-10-16.739-3.27 2.41-6.61 29.199-10 31.439-26.12 17.32-55.59 29.97-87.24 36.77-17.42 3.75-35.5-31.185-54.04-31.185-4.07 0-8.11-.09-12.13-.29-14.31-.66-28.31 34.405-41.91 31.475-115.43-24.8-201.96-127.44-201.96-250.28 0-141.38 114.62-256 256-256s256 114.62 256 256z" fill="#b2e5f7"/><path d="m417.28 339.49v115.32c-3.26 2.65-6.6 5.23-10 7.72-3.27 2.41-6.61 4.74-10 6.98v-130.02z" fill="#f4d84f"/><path d="m407.28 339.49v123.04c-3.27 2.41-6.61 4.74-10 6.98v-130.02z" fill="#efc24d"/><g fill="#70231b"><path d="m266.515 392.694h153.846v20.001h-153.846z" transform="matrix(.707 -.707 .707 .707 -184.157 360.794)"/><path d="m158.562 325.771h20.001v153.846h-20.001z" transform="matrix(.707 -.707 .707 .707 -235.378 237.139)"/></g><path d="m310.04 352.03v154.25c-17.42 3.75-35.5 5.72-54.04 5.72s-36.62-1.97-54.04-5.72v-154.25z" fill="#aa6951"/><path d="m201.957 352.03h108.087v29.159h-108.087z" fill="#934e3c"/><path d="m243.87 352.03v159.68c-14.31-.66-28.31-2.5-41.91-5.43v-154.25z" fill="#934e3c"/><path d="m72.269 109.314h367.463v222.675h-367.463z" fill="#97d6a8"/><g fill="#78b57f"><path d="m72.269 197.421h367.463v19.57h-367.463z"/><path d="m72.269 258.455h367.463v19.57h-367.463z"/><path d="m72.269 109.314h22.99v222.675h-22.99z"/></g><path d="m359.092 172.908h-82.886c-12.336 0-22.336 10-22.336 22.336v144.244h127.559v-144.243c0-12.337-10.001-22.337-22.337-22.337z" fill="#333d3d"/><path d="m391.429 349.488h-147.559v-154.243c0-17.831 14.506-32.336 32.336-32.336h82.886c17.831 0 32.337 14.506 32.337 32.336zm-127.559-20h107.559v-134.243c0-6.802-5.534-12.336-12.337-12.336h-82.886c-6.802 0-12.336 5.534-12.336 12.336z" fill="#78b57f"/><path d="m72.269 109.314h367.463v47.549h-367.463z" fill="#78b57f"/><g><g><path d="m448.197 257.549h27.035v74.439h-27.035z" fill="#aa6951"/><g fill="#934e3c"><path d="m448.197 257.549h27.035v21.297h-27.035z"/><path d="m448.197 257.549h11.035v74.439h-11.035z"/></g></g><g><path d="m365.911 257.549h27.035v74.439h-27.035z" fill="#aa6951"/><g fill="#934e3c"><path d="m365.911 257.549h27.035v21.297h-27.035z"/><path d="m365.911 257.549h11.035v74.439h-11.035z"/></g></g><g><path d="m283.625 257.549h27.035v74.439h-27.035z" fill="#aa6951"/><g fill="#934e3c"><path d="m283.625 257.549h27.035v21.297h-27.035z"/><path d="m283.625 257.549h11.035v74.439h-11.035z"/></g></g><g><path d="m201.34 257.549h27.035v74.439h-27.035z" fill="#aa6951"/><g fill="#934e3c"><path d="m201.34 257.549h27.035v21.297h-27.035z"/><path d="m201.34 257.549h11.035v74.439h-11.035z"/></g></g><g><path d="m119.054 257.549h27.035v74.439h-27.035z" fill="#aa6951"/><g fill="#934e3c"><path d="m119.054 257.549h27.035v21.297h-27.035z"/><path d="m119.054 257.549h11.035v74.439h-11.035z"/></g></g><g><path d="m36.768 257.549h27.035v74.439h-27.035z" fill="#aa6951"/><g fill="#934e3c"><path d="m36.768 257.549h27.035v21.297h-27.035z"/><path d="m36.768 257.549h11.035v74.439h-11.035z"/></g></g></g><path d="m486.345 364.488h-460.69c-8.376 0-15.166-6.79-15.166-15.166v-9.512c0-8.376 6.79-15.166 15.166-15.166h460.691c8.376 0 15.166 6.79 15.166 15.166v9.512c-.001 8.376-6.791 15.166-15.167 15.166z" fill="#aa6951"/><path d="m488.638 270.422h-465.276c-7.109 0-12.873-5.763-12.873-12.873 0-7.109 5.763-12.873 12.873-12.873h465.276c7.109 0 12.873 5.763 12.873 12.873 0 7.11-5.763 12.873-12.873 12.873z" fill="#aa6951"/><path d="m95.259 270.419h-71.9c-7.11 0-12.87-5.76-12.87-12.87 0-3.55 1.44-6.77 3.77-9.1s5.54-3.77 9.1-3.77h71.9c-3.56 0-6.77 1.44-9.1 3.77s-3.77 5.55-3.77 9.1c0 7.11 5.76 12.87 12.87 12.87z" fill="#934e3c"/><path d="m101.779 364.48h-76.13c-8.37 0-15.16-6.79-15.16-15.16v-9.51c0-8.38 6.79-15.17 15.16-15.17h76.13c-8.38 0-15.17 6.79-15.17 15.17v9.51c0 8.37 6.79 15.16 15.17 15.16z" fill="#934e3c"/><path d="m464.27 114.45c-.67 14.3-12.43 26.61-27.91 26.61h-360.72c-15.48 0-27.24-12.31-27.91-26.61-.16-3.39.31-6.89 1.5-10.37l1.66-4.85 9.54-27.82 5.21-15.22 3.13-9.13c3.87-11.29 14.48-18.87 26.42-18.87h321.62c11.94 0 22.55 7.58 26.42 18.87l3.13 9.13 5.21 15.22 9.54 27.82 1.66 4.85c1.19 3.48 1.66 6.98 1.5 10.37z" fill="#6aa2b2"/><path d="m80.409 104.077c-6.21 18.124 7.256 36.971 26.415 36.971h-31.181c-19.159 0-32.626-18.847-26.415-36.971l19.547-57.014c3.871-11.288 14.48-18.879 26.415-18.879h31.181c-11.935 0-22.545 7.59-26.415 18.879z" fill="#598f98"/><path d="m451.57 71.41h-391.14l5.21-15.22h380.72z" fill="#598f98"/><path d="m464.27 114.45h-416.54c-.16-3.39.31-6.89 1.5-10.37l1.66-4.85h410.22l1.66 4.85c1.19 3.48 1.66 6.98 1.5 10.37z" fill="#598f98"/></g></svg>